<svg version="1.1" id="_x32_" xmlns="http://www.w3.org/2000/svg" x="0" y="0" viewBox="0 0 512 512" style="width:256px;height:256px" xml:space="preserve" opacity="1"><style>.st0{fill:#4b4b4b}</style><path class="st0" fill="#fff" d="M512 295.199l-66.08-68.64L512 169.6zm-445.84-68.64L0 295.279V169.6zM512 357.6v63.199c0 15.281-12.4 27.682-27.68 27.682H27.68c-15.281 0-27.68-12.4-27.68-27.682V357.6l98.959-102.721L212 352.238c11.76 10.082 27.359 15.682 44 15.682s32.32-5.6 44.08-15.682l112.959-97.359L512 357.6z"/><path class="st0" d="M512 91.119v27.68l-241.442 208c-7.76 6.72-21.359 6.72-29.119 0L0 118.799v-27.68c0-15.279 12.398-27.6 27.68-27.6h456.64c15.28 0 27.68 12.321 27.68 27.6z" fill="#fff"/></svg>