<svg xmlns="http://www.w3.org/2000/svg" width="34.799" height="42.601" viewBox="0 0 34.799 42.601"><g transform="translate(-848.443 -3098.572)"><g transform="translate(18.443 21.572)"><path d="M16.66,2A14.337,14.337,0,0,0,6.314,6.413a15.486,15.486,0,0,0,0,21.447,14.334,14.334,0,0,0,20.692,0,15.486,15.486,0,0,0,0-21.447A14.337,14.337,0,0,0,16.66,2m0-2a16.9,16.9,0,0,1,16.66,17.137A16.9,16.9,0,0,1,16.66,34.274,16.9,16.9,0,0,1,0,17.137,16.9,16.9,0,0,1,16.66,0Z" transform="translate(830 3077)" fill="#fff"/><path d="M1020.517,3113.112l-8.387-11.156,1.6-1.2,8.387,11.156Z" transform="translate(-157.316 6.489)" fill="#fff"/></g></g></svg>