<svg xmlns="http://www.w3.org/2000/svg" width="46.928" height="46.928" viewBox="0 0 46.928 46.928"><path d="M36.32,46.928a17.358,17.358,0,0,1-7.932-2.161C23.273,42.116,19.7,40.044,13.3,33.636S4.815,23.658,2.164,18.541c-4.71-9.09-.475-14.393.935-15.8L4.663,1.176A3.648,3.648,0,0,1,7.239,0,3.684,3.684,0,0,1,9.984,1.368a76.372,76.372,0,0,1,5.484,7.795,4.906,4.906,0,0,1-.743,6.1L11.69,18.3a44.16,44.16,0,0,0,7.316,9.623,44.15,44.15,0,0,0,9.623,7.317l3.036-3.036a4.947,4.947,0,0,1,3.511-1.48,5,5,0,0,1,2.591.738,76.407,76.407,0,0,1,7.794,5.484,3.718,3.718,0,0,1,1.366,2.659,3.616,3.616,0,0,1-1.175,2.663L44.2,43.82a11.074,11.074,0,0,1-7.879,3.108Z" transform="translate(0)" fill="#fff"/></svg>